<?xml version="1.0" encoding="UTF-8" standalone="no"?>
<!DOCTYPE svg  PUBLIC '-//W3C//DTD SVG 1.0//EN'  'http://www.w3.org/TR/2001/REC-SVG-20010904/DTD/svg10.dtd'>
<svg style="shape-rendering:geometricPrecision;text-rendering:geometricPrecision;image-rendering:optimizeQuality" xmlns="http://www.w3.org/2000/svg" fill-rule="evenodd" xml:space="preserve" height="15.15mm" width="12.536mm" version="1.0" clip-rule="evenodd" xmlns:xlink="http://www.w3.org/1999/xlink" viewBox="0 0 2078 2511">
 <defs>
  <style type="text/css">
   <![CDATA[
    .fil1 {fill:none}
    .fil0 {fill:#035B86}
   ]]>
  </style>
 </defs>
 <g id="Warstwa_x0020_1">
  <g id="_630442880">
    <path class="fil0" d="m210 234c-49 551 114 924-134 1612l-3-77c45-615 41-850 5-1446-16-256 100-249 140-151 7 22 4 45-8 62z"/>
   <path class="fil1" d="m151 195c-42-124 88 1096-43 1503-20 64-23 83-32 148"/>
    <path class="fil0" d="m66 110c622-80 1349-19 2012-40-787 133-1234 70-1941 161-34 19-77 8-96-25-20-34-8-77 25-96z"/>
   <path class="fil1" d="m101 170c157-91 1382 21 1977-100"/>
    <path class="fil0" d="m2039 104c-176 939-103 450-211 1467-23-1045-55-533 88-1535 19-34 62-46 96-27s46 61 27 95z"/>
   <path class="fil1" d="m1978 70c-111 199-150 1191-150 1501"/>
    <path class="fil0" d="m70 1707c963-149 689-245 1649-129 28 4 34-7 52 25-51-11-23 3-65 1-845-40-815 85-1636 244-39 0-70-32-70-70 0-39 31-71 70-71z"/>
   <path class="fil1" d="m70 1778c306 0 1049-354 1622-191 47 13 45-13 79 16"/>
    <path class="fil0" d="m753 1647c-1 389 14 195-45 581-73-379-41-189-95-569-3-39 25-73 64-76 39-4 73 25 76 64z"/>
   <path class="fil1" d="m683 1653c19 220 25 356 25 575"/>
    <path class="fil0" d="m1051 1622c-35 142-56 428-80 506-103-16-60-496-55-545 11-38 50-59 87-48s59 50 48 87z"/>
   <path class="fil1" d="m983 1603c-22 74-58 474-12 525"/>
    <path class="fil0" d="m635 2094c-190-54-425 542 353 208 95-41 547-360 83-299 377-210 298 204-49 378-948 477-780-521-341-420 37 13 56 53 43 90-12 36-52 56-89 43z"/>
   <path class="fil1" d="m658 2028c-272-94-571 706 347 314 260-112 468-492 66-339"/>
    <path class="fil0" d="m345 377c16 238 121 834 1 1096-84-355-21-701-1-1096zm1 1096c-1 4-3 8-5 12l8-2-3-10zm3 10c416-84 751-176 1165-189-18-235 75-740 28-952-816 36-410 24-1247 35 249-32 1035-141 1276-140 200 1 38 1110 26 1170-447 63-736 91-1222 170-10-32-19-63-26-94z"/>
   <path class="fil1" d="m345 377c0 123 9 1155 13 1154 283-104 1193-178 1197-181 8-5 97-1061 16-1061-409 0-895 88-1276 88"/>
  </g>
 </g>
</svg>
